<svg id="Capa_1" enable-background="new 0 0 512 512" height="512" viewBox="0 0 512 512" width="512" xmlns="http://www.w3.org/2000/svg"><g><path d="m67.992 444.351h61.448l155.627 11.649 24.183-47-24.183-46-155.627 13.702h-61.448z" fill="#ffbe40"/><path d="m382.56 444.351v-67.649l-97.493-13.702v93z" fill="#ff9f40"/><path d="m129.44 512h155.627l7.183-30-7.183-37.649h-155.627z" fill="#ffdd46"/><path d="m285.067 444.351h158.942v67.649h-158.942z" fill="#ffbe40"/><path d="m129.44 309.053v67.649h155.627l10.183-32.702-10.183-34.947z" fill="#ffdd46"/><path d="m285.067 309.053h158.942v67.649h-158.942z" fill="#ffbe40"/><path d="m130.4 154.667c0 85.42 69.246 154.667 154.667 154.667l21.183-146.334-21.183-163c-85.421 0-154.667 69.247-154.667 154.667z" fill="#ffbe40"/><path d="m285.067 0v309.333c85.42 0 154.667-69.247 154.667-154.667-.001-85.419-69.247-154.666-154.667-154.666z" fill="#ff9f40"/><path d="m269.067 54.26v47.303c-3.574 1.079-6.999 2.504-10.231 4.246l-33.455-33.454-22.627 22.627 33.455 33.455c-1.742 3.231-3.167 6.656-4.247 10.23h-47.303v32h47.303c1.079 3.574 2.504 6.999 4.247 10.23l-33.455 33.454 22.627 22.627 33.455-33.454c3.232 1.742 6.656 3.167 10.231 4.246v47.303h16l15.183-103.073-15.183-97.74z" fill="#ffdd46"/><path d="m385.474 170.667v-32h-47.303c-1.079-3.574-2.504-6.999-4.246-10.23l33.455-33.455-22.627-22.627-33.455 33.454c-3.232-1.742-6.656-3.168-10.231-4.246v-47.303h-16v200.814h16v-47.303c3.574-1.079 6.999-2.504 10.231-4.246l33.455 33.454 22.627-22.627-33.455-33.454c1.742-3.232 3.167-6.656 4.246-10.23h47.303z" fill="#ffbe40"/></g></svg>